<svg width="102" height="24" viewBox="0 0 102 24" fill="none" xmlns="http://www.w3.org/2000/svg">
    <path d="M13.3824 5.60549L9.96343 12.7018H7.73714L4.27844 5.58561L3.26468 14.292H0.362549L2.0919 0.258411H4.49709L8.83041 9.46174L13.124 0.258411H15.5689L17.2784 14.292H14.3961L13.3824 5.60549Z" fill="#28293D"/>
    <path d="M3.13458 17.9088H0.692871V23.8957H1.90069V21.8016H3.13458C4.49012 21.8016 5.08968 20.8458 5.08968 19.8639C5.08968 18.8907 4.49012 17.9088 3.13458 17.9088ZM3.07375 20.7415H1.90069V18.9776H3.09113C3.65594 18.9776 3.87317 19.4294 3.87317 19.8639C3.87317 20.2896 3.65594 20.7415 3.07375 20.7415Z" fill="#00AE69"/>
    <path d="M7.68054 21.7495L9.10559 23.8957H10.522L8.96656 21.6886C9.97452 21.4801 10.4177 20.7154 10.4177 19.8639C10.4177 18.8907 9.82681 17.9088 8.45389 17.9088H6.06432V23.8957H7.27214V21.7495H7.68054ZM7.27214 20.7762V18.9776H8.33224C8.89705 18.9776 9.20117 19.4033 9.20117 19.8899C9.20117 20.3678 8.92311 20.7762 8.23665 20.7762H7.27214Z" fill="#00AE69"/>
    <path d="M14.2394 24C15.9338 24 17.2893 22.6097 17.2893 20.9066C17.2893 19.2035 15.9338 17.8045 14.2394 17.8045C12.5363 17.8045 11.1981 19.2035 11.1981 20.9066C11.1981 22.6097 12.5363 24 14.2394 24ZM14.2394 22.8617C13.1619 22.8617 12.4059 21.9841 12.4059 20.9066C12.4059 19.8291 13.1619 18.9428 14.2394 18.9428C15.3168 18.9428 16.0728 19.8291 16.0728 20.9066C16.0728 21.9841 15.3168 22.8617 14.2394 22.8617Z" fill="#00AE69"/>
    <path d="M28.9466 14.292H19.9619V0.258411H28.7677V2.76299H22.8044V6.10243H28.0322V8.64676H22.8044V11.7874H28.9665V14.292H28.9466Z" fill="#28293D"/>
    <path d="M37.0567 2.76299V14.292H34.234V2.76299H30.3579V0.258411H40.9328V2.76299H37.0567Z" fill="#28293D"/>
    <path d="M42.0857 10.2171H44.9083C44.9282 11.211 45.9022 12.0458 47.2141 12.0458C48.5062 12.0458 49.3211 11.3501 49.3211 10.3562C49.3211 9.60088 48.7248 9.02443 47.552 8.66663L45.8426 8.16969C42.7615 7.35471 42.2248 5.48622 42.2248 4.23393C42.2248 1.70947 44.3915 0 47.075 0C49.7386 0 51.7661 1.61009 51.7661 4.27368H48.9435C48.9435 3.2798 48.2478 2.50458 47.0352 2.50458C45.9221 2.50458 45.1071 3.22017 45.1071 4.1743C45.1071 4.53209 45.2065 5.22781 46.6774 5.66512L48.2477 6.1223C50.3747 6.71863 52.2233 7.8119 52.2233 10.2171C52.2233 12.9801 49.838 14.5305 47.1942 14.5305C44.153 14.5305 42.0857 12.6819 42.0857 10.2171Z" fill="#28293D"/>
    <path d="M63.7125 14.292H54.7278V0.258411H63.5336V2.76299H57.5703V6.10243H62.7981V8.64676H57.5703V11.7874H63.7323V14.292H63.7125Z" fill="#28293D"/>
    <path d="M76.9112 14.292H74.3669L69.2782 5.48622V14.292H66.4556V0.258411H69.0794L74.0886 8.9648V0.258411H76.9112V14.292Z" fill="#28293D"/>
    <path d="M82.6558 10.9327L81.5426 14.292H78.5212L83.749 0.258411H86.8102L92.0181 14.292H89.0365L87.9035 10.9327H82.6558ZM85.2597 3.2003L83.4906 8.46786H87.0487L85.2597 3.2003Z" fill="#28293D"/>
    <path d="M97.8621 2.76299V14.292H95.0395V2.76299H91.1633V0.258411H101.738V2.76299H97.8621Z" fill="#28293D"/>
</svg>
